<svg xmlns="http://www.w3.org/2000/svg" viewBox="0 0 240 239.08233">
  <defs>
    <linearGradient id="a" x1="-1.72164" y1="148.77128" x2="241.72165" y2="174.3582" gradientUnits="userSpaceOnUse">
      <stop offset="0" stop-color="#5b27ff"/>
      <stop offset=".9985" stop-color="#7211ff"/>
    </linearGradient>
  </defs>
  <g data-name="Layer 2">
    <path d="M4.12256,227.57012A3.12873,3.12873,0,0,1,1,224.44317V123.04375a3.11783,3.11783,0,0,1,2.7998-3.1084L235.54736,95.577A3.12189,3.12189,0,0,1,239,98.68633V200.08574a3.11783,3.11783,0,0,1-2.7998,3.1084L4.45264,227.55254a3.12355,3.12355,0,0,1-.3291.01758Z" fill="url(#a)"/>
    <path d="M235.87732,96.55962A2.12654,2.12654,0,0,1,238,98.686v101.4a2.12617,2.12617,0,0,1-1.9039,2.1145L4.34839,226.55809a2.153,2.153,0,0,1-.22571.01191A2.12654,2.12654,0,0,1,2,224.44359v-101.4a2.12616,2.12616,0,0,1,1.90387-2.1145L235.65164,96.57146a2.17136,2.17136,0,0,1,.22568-.01184m0-2a4.16441,4.16441,0,0,0-.43439.02277L3.69482,118.94011A4.1172,4.1172,0,0,0,0,123.04363v101.4a4.1238,4.1238,0,0,0,4.55713,4.10358L236.30518,204.1895A4.11729,4.11729,0,0,0,240,200.08593V98.686a4.12919,4.12919,0,0,0-4.12268-4.12634Z" fill="#fff"/>
    <path d="M48.5791,168.7586l21.83808-54.82032-23.59827,2.48029-11.3277,30.0578-11.3277-27.67664-20.25964,2.1294A2.12616,2.12616,0,0,0,2,123.04363v1.61951l20.23584,46.864L2,222.83324v1.61035a2.12617,2.12617,0,0,0,2.34839,2.1145l20.17486-2.12048,10.968-28.80011,10.9682,26.49457,24.1283-2.536Z" fill="#8639ff"/>
    <polygon points="130.459 160.153 152.297 105.332 128.699 107.813 117.372 137.87 106.044 110.194 82.42 112.677 104.116 162.922 82.246 218.371 106.404 215.832 117.372 187.031 128.34 213.526 152.468 210.99 130.459 160.153" fill="#8639ff"/>
    <path d="M186.46838,207.41649l29.60907-3.112L238,103.41887V98.686a2.12611,2.12611,0,0,0-2.34839-2.1145l-18.62347,1.9574-15.763,81.36255-15.61463-78.06464-22.54333,2.36945Z" fill="#8639ff"/>
    <path d="M179.64307,238.08184a1.41751,1.41751,0,0,1-1.062-.44531,1.482,1.482,0,0,1-.37451-1.03028v-7.7666a2.07888,2.07888,0,0,1,1.15039-1.8916l5.8003-3.72852v-3.293l-1.21241.127a.59515.59515,0,0,0-.15185.03222c.00293.0127-.00586.0586-.00586.1377v2.05273a1.43188,1.43188,0,0,1-1.31738,1.46094l-2.78955.293-.125.00391a1.327,1.327,0,0,1-1.01612-.44141,1.39351,1.39351,0,0,1-.33252-.94043v-2.79a4.82137,4.82137,0,0,1,4.68653-5.18359l2.94922-.30957a6.99725,6.99725,0,0,1,.73925-.041c2.60254,0,4.15625,1.65527,4.15625,4.42676v6.21387a2.10493,2.10493,0,0,1-1.17675,1.89453l-5.77393,3.71289v1.5957l1.37012-.14453v-.17871a1.5307,1.5307,0,0,1,1.41894-1.57715l2.583-.27148.13965-.00489a1.39523,1.39523,0,0,1,1.439,1.47657v4.02832A1.52735,1.52735,0,0,1,189.314,237.076l-9.52832,1.001Z" fill="#7211ff"/>
    <path d="M186.58276,215.32866c2.044,0,3.15479,1.175,3.15479,3.42652v6.21332c0,.50036-.21021.73291-.7106,1.04852l-5.87125,3.77576a.7501.7501,0,0,0-.36853.67169v2.2901c0,.31152.15234.47625.4375.47625a.84775.84775,0,0,0,.08936-.00494l2.843-.29791v-1.07965a.53394.53394,0,0,1,.52686-.58246l2.52737-.26575a.86192.86192,0,0,1,.0875-.0047c.28588,0,.43884.16388.43884.476v4.028a.53259.53259,0,0,1-.52634.58136l-9.47775.99664a.83825.83825,0,0,1-.0889.00489c-.28549,0-.438-.16547-.438-.4762v-7.76642c0-.50037.18427-.7298.68464-1.04645l6.26574-4.028v-3.89612a.83188.83188,0,0,0-.88708-.9516,1.59417,1.59417,0,0,0-.16559.00891l-1.26395.13294a1.05288,1.05288,0,0,0-1.05319,1.16375v2.05341a.43694.43694,0,0,1-.421.46509l-2.7381.28863a.70192.70192,0,0,1-.07242.00391c-.23928,0-.34906-.14118-.34906-.38178v-2.79058a3.82669,3.82669,0,0,1,3.79129-4.18891l2.94889-.30939a6.10377,6.10377,0,0,1,.636-.03485m.00013-2h-.0001a8.13216,8.13216,0,0,0-.84515.04584l-2.94842.30933a5.8037,5.8037,0,0,0-5.58262,6.178v2.79058a2.31368,2.31368,0,0,0,2.34906,2.38178,2.69985,2.69985,0,0,0,.279-.01459l.80465-.08484-1.82956,1.17615a3.08341,3.08341,0,0,0-1.60312,2.72882v7.76642a2.40337,2.40337,0,0,0,2.438,2.4762,2.8466,2.8466,0,0,0,.29993-.01606l9.47589-.99646a2.51741,2.51741,0,0,0,2.31717-2.57037v-4.028a2.4037,2.4037,0,0,0-2.43884-2.476,2.85327,2.85327,0,0,0-.29285.01526l-1.11948.11774,2.22235-1.4292a3.10714,3.10714,0,0,0,1.62882-2.73071v-6.21332c0-3.34717-1.97516-5.42652-5.15466-5.42652Z" fill="#fff"/>
    <path d="M198.41309,236.08086c-2.63428,0-4.145-1.61328-4.145-4.42773v-13.4795a4.82052,4.82052,0,0,1,4.68652-5.18261l2.94873-.30957a6.973,6.973,0,0,1,.75147-.041c2.63378,0,4.14453,1.61328,4.14453,4.42676v13.47949a4.82108,4.82108,0,0,1-4.68653,5.1836l-2.94873.30957A6.97055,6.97055,0,0,1,198.41309,236.08086Zm1.36132-17.749a.905.905,0,0,1-.00439.13281v12.10547l1.47461-.15527a.59513.59513,0,0,0,.15234-.03223c-.00293-.0127.00586-.05859.00586-.1377V218.13945l-1.4751.15528a.45045.45045,0,0,0-.15478.03711Z" fill="#7211ff"/>
    <path d="M202.65479,213.64c2.05685,0,3.14447,1.17743,3.14447,3.42713v13.47931a3.82764,3.82764,0,0,1-3.79133,4.19l-2.94833.30933a6.18808,6.18808,0,0,1-.64654.03552c-2.05713,0-3.14478-1.17835-3.14478-3.42816V218.17382a3.82677,3.82677,0,0,1,3.79132-4.189l2.94833-.30932a6.17534,6.17534,0,0,1,.64686-.03553m-3.0189,17.94031a1.79271,1.79271,0,0,0,.18674-.01025l1.52713-.16089a1.05226,1.05226,0,0,0,1.05319-1.16376v-12.163c0-.6228-.30545-.95227-.87674-.95227a1.70135,1.70135,0,0,0-.17645.00964l-1.52713.16089a1.06608,1.06608,0,0,0-1.05267,1.16376v12.163c0,.64343.30176.95288.86593.95288m3.019-19.94031a8.21567,8.21567,0,0,0-.85633.04651l-2.94763.30927a5.80381,5.80381,0,0,0-5.58264,6.178v13.47931c0,3.3482,1.97137,5.42816,5.14478,5.42816a8.22647,8.22647,0,0,0,.856-.04651l2.94757-.30927a5.80433,5.80433,0,0,0,5.58265-6.17907V217.06713c0-3.3476-1.97123-5.42713-5.14438-5.42713Z" fill="#fff"/>
    <path d="M211.76758,234.70586a1.41917,1.41917,0,0,1-1.06153-.44336,1.479,1.479,0,0,1-.37646-1.03222v-7.76661A2.08042,2.08042,0,0,1,211.48,223.5711l5.80029-3.72852v-3.292l-1.2124.12695a.595.595,0,0,0-.15185.03223c.00293.01269-.00586.05859-.00586.13769v2.05274a1.43189,1.43189,0,0,1-1.31739,1.46093l-2.78955.292-.12646.0039a1.32305,1.32305,0,0,1-1.01612-.44238,1.39032,1.39032,0,0,1-.33105-.93848v-2.79a4.821,4.821,0,0,1,4.686-5.18359l2.94971-.30957a7.00025,7.00025,0,0,1,.73926-.041c2.60254,0,4.15625,1.65528,4.15625,4.42676v6.21387a2.10492,2.10492,0,0,1-1.17676,1.89453L215.91016,227.2v1.59473l1.37011-.14453v-.17871a1.53,1.53,0,0,1,1.41846-1.57618l2.583-.27148.14111-.00488a1.39473,1.39473,0,0,1,1.438,1.47656v4.02832a1.52742,1.52742,0,0,1-1.42188,1.5752l-9.53027,1.00195Z" fill="#7211ff"/>
    <path d="M218.70566,211.95269c2.0441-.00006,3.1553,1.17492,3.1553,3.42645v6.21332c0,.50036-.21075.73291-.71112,1.04852l-5.87125,3.7757a.75022.75022,0,0,0-.36856.67169v2.29016c0,.31152.15241.47626.4376.47626a.84557.84557,0,0,0,.08926-.005l2.84351-.29895v-1.07971a.53258.53258,0,0,1,.52633-.58136l2.52738-.26575a.848.848,0,0,1,.08926-.00494c.28525,0,.43759.16473.43759.47626v4.028a.53321.53321,0,0,1-.52685.58136l-9.47779.99665a.8555.8555,0,0,1-.08722.0047c-.28653,0-.43963-.16474-.43963-.476v-7.76642c0-.50036.18426-.73083.68466-1.04644l6.26627-4.02906V216.492a.831.831,0,0,0-.88547-.95074,1.60519,1.60519,0,0,0-.16776.00915l-1.26391.13288A1.05293,1.05293,0,0,0,214.91,216.847v2.05346a.437.437,0,0,1-.421.46509l-2.73812.2876a.69552.69552,0,0,1-.07441.00421c-.23794,0-.34707-.14111-.34707-.3811v-2.79053a3.82671,3.82671,0,0,1,3.79132-4.18891l2.94885-.30938a6.08435,6.08435,0,0,1,.636-.03479m.00012-2h-.00009a8.11633,8.11633,0,0,0-.84519.04577l-2.94839.30933a5.80371,5.80371,0,0,0-5.58264,6.178v2.79053a2.31234,2.31234,0,0,0,2.34707,2.381,2.68712,2.68712,0,0,0,.28806-.01563l.79858-.08386-1.83072,1.17712a3.07859,3.07859,0,0,0-1.603,2.7287v7.76642a2.4041,2.4041,0,0,0,2.43963,2.476,2.85456,2.85456,0,0,0,.29194-.0152l9.48223-.99713a2.52131,2.52131,0,0,0,2.31769-2.57038v-4.028a2.40325,2.40325,0,0,0-2.43759-2.47626,2.849,2.849,0,0,0-.3.016l-1.11413.11719,2.22241-1.4292a3.10784,3.10784,0,0,0,1.62933-2.73071v-6.21332c0-3.34717-1.97534-5.42645-5.15518-5.42645Z" fill="#fff"/>
    <path d="M230.53613,232.70488c-2.63427,0-4.145-1.61328-4.145-4.42773V214.79766a4.81953,4.81953,0,0,1,4.687-5.18262l2.94825-.30957a6.97279,6.97279,0,0,1,.75146-.041c2.63379,0,4.14453,1.61329,4.14453,4.42676V227.1707a4.82108,4.82108,0,0,1-4.68652,5.1836l-2.94873.30957A6.97074,6.97074,0,0,1,230.53613,232.70488Zm1.36084-17.75c.0083,0-.0039.04883-.0039.13282v12.10644l1.47461-.15527a.59525.59525,0,0,0,.15234-.03223c-.00293-.01269.00586-.05859.00586-.13769V214.76348l-1.4751.15527a.44183.44183,0,0,0-.15527.03711Z" fill="#7211ff"/>
    <path d="M234.7778,210.264c2.05686-.00006,3.14435,1.17736,3.14435,3.42712V227.1704a3.82759,3.82759,0,0,1-3.79132,4.18994l-2.94833.30939a6.18659,6.18659,0,0,1-.64646.03552c-2.0571,0-3.14487-1.17834-3.14487-3.42816V214.79778a3.82672,3.82672,0,0,1,3.79133-4.189l2.94833-.30933a6.18016,6.18016,0,0,1,.647-.03552m-3.0181,17.94024a1.798,1.798,0,0,0,.18634-.01019l1.52659-.16095a1.05225,1.05225,0,0,0,1.05322-1.16376v-12.1629c0-.6228-.30545-.95227-.87674-.95227a1.70132,1.70132,0,0,0-.17648.00964l-1.52659.16089a1.06529,1.06529,0,0,0-1.05319,1.16272v12.163c0,.64361.30191.95385.86685.95385M234.778,208.264a8.2159,8.2159,0,0,0-.85666.04651l-2.94754.30926a5.80373,5.80373,0,0,0-5.58265,6.178v13.47931c0,3.3482,1.97141,5.4281,5.14487,5.4281a8.22085,8.22085,0,0,0,.8559-.04645l2.94763-.30932a5.80423,5.80423,0,0,0,5.58258-6.179V213.69109c0-3.34759-1.97113-5.42712-5.14413-5.42712Z" fill="#fff"/>
    <path d="M38.91327,25.68023a1.33075,1.33075,0,0,1-1.65952-1.00733q-.61266-2.58408-1.22531-5.16821a1.65374,1.65374,0,0,1,.65769-1.74921q1.66836-1.42611,3.36129-2.83655-.19436-.87222-.38882-1.74432-.15559.03461-.31125.06952.12231.54849.24454,1.09711a1.292,1.292,0,0,1-1.02951,1.55285q-.95242.2168-1.90415.43885a1.27793,1.27793,0,0,1-1.60595-.94556q-.22005-.92835-.44019-1.85675c-.52173-2.18756.55682-3.82831,2.89111-4.35785q1.04486-.23656,2.09079-.467c2.33674-.514,4.00843.51263,4.46729,2.71417q.43611,2.07917.87222,4.15857a1.69038,1.69038,0,0,1-.716,1.73724q-1.68032,1.38438-3.33667,2.78437l.1365.60992.32782-.07318a1.33169,1.33169,0,0,1,1.10852-1.369q.87058-.19061,1.74186-.37683a1.33145,1.33145,0,0,1,1.65084,1.04q.28277,1.34811.56553,2.69623a1.33044,1.33044,0,0,1-1.072,1.61743Q42.12176,24.9327,38.91327,25.68023Z" fill="#7211ff"/>
    <path d="M39.8092,9.6823c1.73365-.38092,2.87268.29987,3.2233,1.955q.442,2.078.88394,4.15606c.07123.33478-.045.50641-.355.75672q-1.811,1.493-3.59411,3.00384a.4503.4503,0,0,0-.15824.4784q.17322.76382.34647,1.52758a.32716.32716,0,0,0,.43966.27q.97279-.21954,1.94657-.43377-.07925-.36063-.1586-.72107a.32732.32732,0,0,1,.28433-.43024q.8682-.19,1.737-.37579a.32749.32749,0,0,1,.4371.27435q.28651,1.34728.57312,2.69458a.32648.32648,0,0,1-.2839.42889q-3.22714.68985-6.44455,1.43952a.3266.3266,0,0,1-.43933-.26746q-.60525-2.5858-1.21066-5.17169c-.07776-.3327.01635-.50311.32119-.75885q1.90325-1.626,3.83838-3.23163-.28618-1.30141-.57248-2.60278a.67117.67117,0,0,0-.89486-.53931q-.444.09841-.888.19837a.655.655,0,0,0-.58054.86889q.15528.68483.31058,1.36951a.27154.27154,0,0,1-.23017.34772q-.95513.21734-1.90933.44a.26263.26263,0,0,1-.35925-.21191q-.2174-.929-.43494-1.858c-.3873-1.64654.336-2.7442,2.0871-3.141q1.04205-.23583,2.0852-.46582m-.43042-1.95312q-1.04863.23107-2.09634.46826c-2.90417.65832-4.35077,2.86719-3.69464,5.57757q.2227.92771.44546,1.85547A2.23577,2.23577,0,0,0,35.688,17.30694a2.50822,2.50822,0,0,0-.66693,2.438q.61991,2.58243,1.24,5.1648A2.3382,2.3382,0,0,0,39.1402,26.6541q3.1993-.74542,6.40872-1.43152a2.33661,2.33661,0,0,0,1.8605-2.8031q-.27891-1.34894-.55786-2.69781a2.29,2.29,0,0,0-1.77646-1.81384,2.56723,2.56723,0,0,0,.87589-2.54126q-.43026-2.08046-.86044-4.161c-.55924-2.73139-2.8046-4.11628-5.71177-3.47638Z" fill="#fff"/>
    <path d="M51.78207,22.92925A3.28515,3.28515,0,0,1,47.572,20.18053l-.11569-.56439a1.33168,1.33168,0,0,1,1.09982-1.61145q.87287-.17561,1.74643-.34662a1.33118,1.33118,0,0,1,1.55331.79889l.351-.06726q-.18027-.94382-.36057-1.8877-1.92342-.20736-3.85559-.39367a1.39412,1.39412,0,0,1-1.29117-1.116q-.62768-3.06921-1.25531-6.13855a1.353,1.353,0,0,1,1.14188-1.6192q3.18449-.6384,6.377-1.22125a1.35235,1.35235,0,0,1,1.65842,1.08288q.14562.81519.29117,1.63043a1.35309,1.35309,0,0,1-1.16354,1.59247q-1.57242.28712-3.143.58777.10272.5366.20551,1.0733,1.94677.20233,3.885.42572a1.38688,1.38688,0,0,1,1.26736,1.14466q.4324,2.42862.86487,4.85717A3.28342,3.28342,0,0,1,53.93448,22.517Q52.85783,22.7199,51.78207,22.92925Z" fill="#7211ff"/>
    <path d="M53.14267,6.997a.33242.33242,0,0,1,.43927.28631q.14785.81483.29578,1.62964a.33211.33211,0,0,1-.30817.42237q-2.09349.38223-4.18359.78851.26966,1.3872.53933,2.77423,2.323.2363,4.63391.50244a.3858.3858,0,0,1,.38355.33338q.43932,2.42733.87857,4.85473a2.29393,2.29393,0,0,1-2.07193,2.94568q-1.07968.20334-2.15842.41339a2.29478,2.29478,0,0,1-3.01471-1.97156q-.05712-.28234-.11413-.56475a.3276.3276,0,0,1,.291-.42627q.87045-.17514,1.74164-.34571a.32761.32761,0,0,1,.43216.28278q.0688.35329.13767.70642.98621-.19216,1.97323-.37891a.328.328,0,0,0,.2959-.42254q-.30454-1.61912-.609-3.2381-2.30223-.25361-4.61679-.47748a.38559.38559,0,0,1-.38953-.32611q-.61893-3.071-1.23791-6.14209a.33231.33231,0,0,1,.30218-.42828q3.176-.63684,6.36-1.21808m-.35916-1.96747q-3.20091.58439-6.394,1.22455a2.37167,2.37167,0,0,0-1.98111,2.813q.63629,3.06747,1.27264,6.135A2.38792,2.38792,0,0,0,47.838,17.10064l.175.0169a2.31253,2.31253,0,0,0-1.56213,2.70618q.05859.28207.11731.56415a4.3071,4.3071,0,0,0,5.405,3.523q1.07277-.20874,2.14643-.41107a4.30458,4.30458,0,0,0,3.71737-5.27q-.42562-2.42982-.85116-4.85962a2.36674,2.36674,0,0,0-2.1134-1.95356q-.48166-.05556-.96378-.1101l.02011-.00367A2.37584,2.37584,0,0,0,55.94806,8.5432q-.14323-.81573-.28659-1.63122a2.37052,2.37052,0,0,0-2.878-1.88245Z" fill="#fff"/>
    <path d="M62.3436,21.03661a1.25807,1.25807,0,0,1-1.5004-1.05713Q60.10455,15.57113,59.366,11.163q-.55962.09375-1.11893.18927a1.29136,1.29136,0,0,1-1.54431-1.03961q-.15477-.887-.30948-1.774a1.29152,1.29152,0,0,1,1.11743-1.49993q3.44407-.588,6.89624-1.11109A1.27639,1.27639,0,0,1,65.93774,7.001l.26331,1.78143a1.27518,1.27518,0,0,1-1.13849,1.4718q-.56045.085-1.12054.17157.68321,4.41714,1.36636,8.83441a1.258,1.258,0,0,1-1.092,1.47467Q63.27958,20.88308,62.3436,21.03661Z" fill="#7211ff"/>
    <path d="M64.55679,6.91631a.26323.26323,0,0,1,.34232.23969l.26831,1.7807a.26212.26212,0,0,1-.25467.32879q-1.07817.16334-2.15561.33319.77354,4.90907,1.547,9.8183a.25207.25207,0,0,1-.2442.3302q-.93928.14877-1.878.30255a.25926.25926,0,0,1-.33564-.23681q-.80741-4.90366-1.61474-9.80738-1.07676.17726-2.15274.361a.27082.27082,0,0,1-.34531-.23224q-.15229-.88743-.30447-1.77484a.27167.27167,0,0,1,.25-.335q3.43482-.58649,6.87777-1.10809m-.29962-1.97742q-3.46119.52442-6.9147,1.114A2.31835,2.31835,0,0,0,55.358,8.72075q.1572.88661.31449,1.77314A2.32291,2.32291,0,0,0,58.41537,12.338l.091-.01556q.667,3.91323,1.33407,7.8266a2.26242,2.26242,0,0,0,2.66477,1.87439q.93351-.15272,1.86752-.30091A2.26171,2.26171,0,0,0,66.313,19.10625q-.5957-3.92487-1.19138-7.84955l.09079-.01379A2.29432,2.29432,0,0,0,67.23492,8.631q-.12914-.89108-.25827-1.78216a2.29055,2.29055,0,0,0-2.71948-1.91Z" fill="#fff"/>
    <path d="M75.18372,19.17083a1.27131,1.27131,0,0,1-1.45945-1.11078q-.24536-1.87866-.49063-3.7572l-.31006.04065q.247,1.87838.49384,3.75677a1.2714,1.2714,0,0,1-1.12421,1.44934q-.93.12561-1.85946.25623a1.26716,1.26716,0,0,1-1.49292-1.0885q-.85854-5.952-1.71708-11.90412a1.28641,1.28641,0,0,1,1.17844-1.46887q.96726-.13587,1.93509-.26666a1.29028,1.29028,0,0,1,1.51257,1.09784q.25168,1.91409.50327,3.82837l.31378-.04114q-.24994-1.91437-.5-3.8288A1.29025,1.29025,0,0,1,73.3454,4.68352q.96863-.12286,1.93768-.24072a1.28589,1.28589,0,0,1,1.51605,1.11578q.70386,5.97226,1.40766,11.94471a1.26615,1.26615,0,0,1-1.16117,1.43627Q76.11445,19.05272,75.18372,19.17083Z" fill="#7211ff"/>
    <path d="M75.40378,5.43548c.22488-.02765.33218.06793.35364.24737q.72069,5.97044,1.44131,11.94067c.02158.17847-.05624.29712-.2738.32337q-.93375.11343-1.8671.23193a.26752.26752,0,0,1-.32645-.2489q-.30345-2.37525-.60672-4.75043-1.17617.15015-2.35156.30811.31884,2.37331.63754,4.74646a.26754.26754,0,0,1-.25137.32452q-.93264.12608-1.86462.257c-.21744.03-.32279-.064-.34806-.24194q-.84177-5.95441-1.6835-11.90894c-.02539-.17865.0531-.29852.2782-.33007q.96465-.1356,1.92993-.266a.27162.27162,0,0,1,.33823.24512q.3236,2.40912.64718,4.81806,1.183-.159,2.36692-.31012-.30793-2.41114-.61588-4.82215a.27115.27115,0,0,1,.26361-.324q.96608-.12259,1.9325-.24011m-.2414-1.98542q-.97164.1182-1.94287.2414a2.49071,2.49071,0,0,0-1.44372.68786,2.48416,2.48416,0,0,0-1.57245-.29266q-.97036.13119-1.94028.26739a2.30047,2.30047,0,0,0-2.07831,2.61048q.8753,5.94965,1.75061,11.89923a2.271,2.271,0,0,0,2.63752,1.93237q.92688-.1301,1.85427-.25555a2.33965,2.33965,0,0,0,1.37629-.68512,2.341,2.341,0,0,0,1.50616.30743q.92817-.11782,1.85672-.23065a2.26982,2.26982,0,0,0,2.0488-2.54639q-.687-5.97417-1.374-11.9486a2.2993,2.2993,0,0,0-2.67871-1.98719Z" fill="#fff"/>
    <path d="M94.12424,17.2763a1.28116,1.28116,0,0,1-1.35385-.93836q-.24954-.90537-.50089-1.81048-.78556.06107-1.5708.12579-.09558.91626-.18945,1.8324a1.29384,1.29384,0,0,1-1.19175,1.17547q-.97008.08423-1.93981.17371a1.25152,1.25152,0,0,1-1.0593-.37738,1.21584,1.21584,0,0,1-.29626-1.07239q.84681-7.00891,1.80957-14.01593A1.31681,1.31681,0,0,1,89.093,1.21654q1.31808-.11032,2.63666-.21112a1.31913,1.31913,0,0,1,1.43264.95361Q95.23384,8.74135,97.19006,15.545a1.22113,1.22113,0,0,1-1.142,1.59552Q95.08594,17.20577,94.12424,17.2763Z" fill="#7211ff"/>
    <path d="M91.806,2.00249a.29132.29132,0,0,1,.34024.22687q2.09184,6.78469,4.0683,13.59119c.04965.19433-.016.30737-.23419.3222q-.96474.06555-1.92917.13623a.27925.27925,0,0,1-.30979-.2298q-.35211-1.29218-.7081-2.58325-1.63219.12333-3.26364.26135-.13641,1.33073-.26925,2.6615a.27944.27944,0,0,1-.26935.27607q-.97275.0844-1.94522.17425c-.19947.01807-.30085-.08069-.26435-.28253Q87.89021,9.52267,88.876,2.4912a.2919.2919,0,0,1,.30032-.27814Q90.4908,2.1032,91.806,2.00249m-1.75153,9.60468q1.17993-.09832,2.36029-.189Q91.584,8.331,90.73285,5.24755q-.34941,3.17971-.67841,6.35962M91.65338.00835Q90.33127.10953,89.0097.22a2.35259,2.35259,0,0,0-2.22677,2.05792Q85.83829,9.284,85.00949,16.29216a2.21362,2.21362,0,0,0,.56622,1.8462,2.28049,2.28049,0,0,0,1.89389.69226q.967-.08927,1.93442-.17328a2.29423,2.29423,0,0,0,2.10422-1.999l.00516-.03625.00384-.03644q.0369-.35175.07428-.70343.097.3478.19385.69544l.0072.02587.00791.02564a2.29191,2.29191,0,0,0,2.39688,1.64447q.9591-.07032,1.91845-.13544a2.27554,2.27554,0,0,0,1.7132-.90826,2.22446,2.22446,0,0,0,.354-1.8971l-.00766-.03064-.0086-.03027Q96.22619,8.455,94.17,1.65868A2.34055,2.34055,0,0,0,91.65338.00835Z" fill="#fff"/>
    <path d="M105.77869,16.61236a1.33736,1.33736,0,0,1-1.28617-.77533q-.80964-1.45982-1.63156-2.916.06106,1.26315.122,2.52637a1.25605,1.25605,0,0,1-1.23736,1.35168q-.85361.04431-1.7071.09278a1.27,1.27,0,0,1-1.37664-1.20972q-.36232-6.00283-.72464-12.00549a1.28892,1.28892,0,0,1,1.27429-1.36487q.74643-.04221,1.4931-.08173a1.38222,1.38222,0,0,1,1.34012.759q.844,1.455,1.67593,2.91358l-.11377-2.52478a1.27481,1.27481,0,0,1,1.29471-1.34528q.88866-.03681,1.77753-.0694a1.28881,1.28881,0,0,1,1.39557,1.24024q.19857,6.01035.39709,12.02081a1.2706,1.2706,0,0,1-1.25763,1.33264Q106.49644,16.58309,105.77869,16.61236Z" fill="#7211ff"/>
    <path d="M106.71579,2.96245a.27121.27121,0,0,1,.31213.277q.21548,6.00979.43091,12.01959a.26691.26691,0,0,1-.28125.29846q-.71984.02646-1.43951.05567a.32729.32729,0,0,1-.33734-.22064q-1.85688-3.36475-3.77869-6.71009.17427,3.40777.34848,6.81531a.25866.25866,0,0,1-.27676.30267q-.856.0445-1.71183.09308a.2673.2673,0,0,1-.30792-.271Q99.32855,9.61873,98.98315,3.615a.27134.27134,0,0,1,.285-.30481q.74451-.04221,1.48907-.08148a.33818.33818,0,0,1,.35154.21533q1.94878,3.34305,3.8327,6.70624-.14411-3.40906-.288-6.81812a.26282.26282,0,0,1,.28958-.30047q.88623-.03663,1.77274-.06922M106.64252.9638q-.891.0324-1.78226.06958A2.371,2.371,0,0,0,102.813,2.25811a2.42435,2.42435,0,0,0-2.161-1.02668q-.74864.03947-1.49707.082a2.31386,2.31386,0,0,0-2.26346,2.42786l.75842,12.00342a2.28522,2.28522,0,0,0,2.44528,2.14557q.85117-.04817,1.70234-.09253a2.30139,2.30139,0,0,0,1.9494-1.2395,2.32685,2.32685,0,0,0,2.07242,1.05328q.71576-.02912,1.43151-.05536a2.28518,2.28518,0,0,0,2.234-2.36407q-.18159-6.01108-.36325-12.02185A2.31387,2.31387,0,0,0,106.64252.9638Z" fill="#fff"/>
    <path d="M117.17215,16.33007a1.33816,1.33816,0,0,1-1.26016-.81385q-.763-1.48526-1.5383-2.96728l.04175,2.528a1.25626,1.25626,0,0,1-1.27927,1.31171q-.85437.01731-1.70868.03851a1.26983,1.26983,0,0,1-1.33713-1.2528q-.17153-6.01117-.34305-12.0224a1.28867,1.28867,0,0,1,1.31656-1.32373q.74721-.01869,1.49448-.03425a1.38216,1.38216,0,0,1,1.315.80109q.79725,1.481,1.58219,2.96533-.0168-1.26351-.03354-2.5271a1.27456,1.27456,0,0,1,1.33648-1.30346q.88931-.00852,1.77851-.013a1.28888,1.28888,0,0,1,1.35528,1.28393q.0076,6.01365.01523,12.02735a1.27,1.27,0,0,1-1.2991,1.292Q117.89029,16.32369,117.17215,16.33007Z" fill="#7211ff"/>
    <path d="M118.5419,2.71679a.27112.27112,0,0,1,.30313.28674l.04907,12.02722a.26689.26689,0,0,1-.29055.28937q-.72021.00366-1.44031.00995a.32792.32792,0,0,1-.3306-.23126q-1.74852-3.422-3.56241-6.82666.06592,3.41153.1319,6.82293a.25864.25864,0,0,1-.2861.29376q-.8568.0174-1.71344.03858a.26709.26709,0,0,1-.29907-.28058q-.15459-6.01153-.30921-12.02332a.27118.27118,0,0,1,.29447-.29565q.74523-.01841,1.49047-.03418a.33757.33757,0,0,1,.34443.22644q1.84107,3.40329,3.617,6.82452l-.07141-6.82385a.263.263,0,0,1,.29889-.29107q.88692-.00852,1.77374-.01294M118.53214.71685q-.89173.00431-1.78327.013a2.37048,2.37048,0,0,0-2.08465,1.15906A2.424,2.424,0,0,0,112.53745.79418q-.74928.01566-1.49848.0343a2.31378,2.31378,0,0,0-2.33859,2.35474q.18842,6.01071.37689,12.02142a2.28487,2.28487,0,0,0,2.37512,2.22217q.85189-.02106,1.70392-.03839a2.30137,2.30137,0,0,0,1.98712-1.17676A2.32769,2.32769,0,0,0,117.181,17.33q.71617-.00642,1.43228-.00989a2.28449,2.28449,0,0,0,2.30768-2.29193q.00915-6.01365.01859-12.02729a2.31325,2.31325,0,0,0-2.40744-2.284Z" fill="#fff"/>
    <path d="M122.82373,16.32427a1.25583,1.25583,0,0,1-1.29657-1.29462L121.566,3.00237a1.2748,1.2748,0,0,1,1.35782-1.28119q.984.00669,1.96783.01862a1.28908,1.28908,0,0,1,1.33325,1.30682q-.09466,6.01292-.18939,12.02582a1.26994,1.26994,0,0,1-1.32089,1.26977Q123.76918,16.33077,122.82373,16.32427Z" fill="#7211ff"/>
    <path d="M124.87949,2.73967a.27131.27131,0,0,1,.29821.29187q-.07778,6.0131-.15554,12.02631a.26714.26714,0,0,1-.29544.28442q-.94808-.01143-1.89615-.01794a.259.259,0,0,1-.29-.29q.03634-6.01354.07266-12.0271a.26272.26272,0,0,1,.30368-.28613q.98127.00678,1.96256.01855m.02426-1.99981q-.98663-.012-1.97309-.01868a2.28737,2.28737,0,0,0-2.412,2.2793q-.00248,6.01373-.005,12.02734a2.28487,2.28487,0,0,0,2.30313,2.29645q.94281.00641,1.88562.01788a2.28492,2.28492,0,0,0,2.34635-2.25238q.11151-6.01272.2232-12.02527A2.3135,2.3135,0,0,0,124.90375.73986Z" fill="#fff"/>
    <path d="M131.38419,16.4851a1.3803,1.3803,0,0,1-1.35016-1.12043q-1.282-5.98388-2.65946-11.95831a1.28041,1.28041,0,0,1,.27027-1.14929,1.40467,1.40467,0,0,1,1.12307-.4502q.86088.0196,1.72171.04279a1.41424,1.41424,0,0,1,1.4018,1.12311q.37014,1.877.73166,3.755.48633-1.83636.98123-3.67157a1.42237,1.42237,0,0,1,1.48105-1.05365q.86055.03407,1.721.07184a1.40551,1.40551,0,0,1,1.09088.52387,1.265,1.265,0,0,1,.2001,1.14062q-1.78377,5.87678-3.47189,11.76972a1.38147,1.38147,0,0,1-1.424,1.03686Q132.29285,16.513,131.38419,16.4851Z" fill="#7211ff"/>
    <path d="M136.7623,3.07341c.28293.01215.38931.16144.32178.41028q-1.76465,5.86845-3.43415,11.753a.37787.37787,0,0,1-.41278.30939q-.91109-.03259-1.82226-.06061a.37829.37829,0,0,1-.39176-.33612q-1.2654-5.982-2.626-11.95483c-.05057-.253.06533-.39435.34829-.38794q.85859.01941,1.71707.04266a.38723.38723,0,0,1,.40577.33551q.818,4.09369,1.59518,8.19062,1.05711-4.036,2.1553-8.0658a.38732.38732,0,0,1,.42722-.30786q.85812.034,1.71634.07165m.088-1.998q-.86265-.03809-1.72558-.072a2.45345,2.45345,0,0,0-2.35056,1.32043A2.45333,2.45333,0,0,0,130.51672.85q-.86306-.02353-1.72631-.04285a2.46922,2.46922,0,0,0-1.95057.8056,2.21785,2.21785,0,0,0-.4971,1.96015q1.39719,5.98938,2.69831,11.989a2.39239,2.39239,0,0,0,2.31244,1.92273q.90618.02773,1.81213.06024a2.38386,2.38386,0,0,0,2.42975-1.74768q1.70182-5.88226,3.49908-11.7486l.00775-.02527.007-.02545a2.21677,2.21677,0,0,0-.36578-1.98889,2.47052,2.47052,0,0,0-1.89313-.93359Z" fill="#fff"/>
    <path d="M139.86606,16.84606a1.26123,1.26123,0,0,1-1.21579-1.35388q.30528-6.006.61059-12.01178a1.27917,1.27917,0,0,1,1.39869-1.21625q3.47781.18933,6.95254.44342a1.275,1.275,0,0,1,1.25217,1.3855q-.069.89767-.13788,1.79553a1.2832,1.2832,0,0,1-1.43488,1.20178q-1.78647-.13063-3.57385-.244l-.04886.77094q1.23395.07809,2.46735.16473a1.28821,1.28821,0,0,1,1.23617,1.399q-.06555.88871-.13116,1.7774a1.28853,1.28853,0,0,1-1.41251,1.2074q-1.21879-.08532-2.43789-.16278l-.04209.6637q1.7591.1116,3.51737.24011a1.24269,1.24269,0,0,1,1.21521,1.38281q-.06894.89777-.13785,1.79547a1.25658,1.25658,0,0,1-1.39667,1.187Q143.208,17.02788,139.86606,16.84606Z" fill="#7211ff"/>
    <path d="M147.53912,3.70488c.22583.01667.29346.12934.28006.30945l-.13281,1.7959a.26726.26726,0,0,1-.32193.28278q-2.31093-.1691-4.62338-.30909-.08382,1.38373-.1676,2.7674,1.74674.10593,3.4927.22827a.275.275,0,0,1,.27548.32678q-.06308.889-.12612,1.77777a.27383.27383,0,0,1-.3169.28412q-1.73446-.12176-3.46994-.2268l-.16113,2.66015q2.26345.13714,4.52554.30255c.21957.01624.28641.11109.27182.3089q-.06646.89785-.13284,1.79584c-.01334.17914-.09427.2818-.31238.26587q-3.34818-.24481-6.69931-.42725a.26223.26223,0,0,1-.25769-.30243q.32217-6.005.64438-12.01007a.2657.2657,0,0,1,.29815-.27234q3.46853.18879,6.9339.4422m.14591-1.99469q-3.48395-.2547-6.97113-.44458a2.3036,2.3036,0,0,0-2.49933,2.16309q-.28834,6.00678-.57678,12.01349a2.27585,2.27585,0,0,0,2.17392,2.4024q3.33252.18128,6.66208.42487a2.25936,2.25936,0,0,0,2.48065-2.10529q.07155-.89739.14294-1.795a2.22173,2.22173,0,0,0-1.22265-2.20691,2.29947,2.29947,0,0,0,.3919-1.12671q.06812-.88842.13617-1.777a2.2728,2.2728,0,0,0-.26633-1.26574,2.25947,2.25947,0,0,0,1.6297-2.02289q.07155-.8974.143-1.795A2.28834,2.28834,0,0,0,147.685,1.71019Z" fill="#fff"/>
    <path d="M155.428,18.0327a1.29487,1.29487,0,0,1-1.193-1.15387q-.15265-1.02483-.30828-2.04949-.08154.87514-.163,1.75024a1.27035,1.27035,0,0,1-1.41607,1.16412q-.88835-.07947-1.77692-.15454a1.27049,1.27049,0,0,1-1.19367-1.391q.48441-5.99424.96878-11.98828a1.28924,1.28924,0,0,1,1.45392-1.1723q2.26461.19107,4.52732.41015c2.35888.22858,3.621,1.7193,3.37884,3.95539q-.19239,1.79928-.38489,3.59857a3.53874,3.53874,0,0,1-1.18039,2.454q.23319,1.667.459,3.33417a1.23373,1.23373,0,0,1-.32837,1.06005,1.27417,1.27417,0,0,1-1.06811.36152Q156.31573,18.11986,155.428,18.0327Zm-.49536-8.20739q.10189-1.07428.20376-2.14862-.26947-.02583-.53875-.05152Q154.49747,8.7,154.39737,9.775,154.665,9.80011,154.93259,9.82531Z" fill="#7211ff"/>
    <path d="M156.23074,4.443c1.76892.172,2.61548,1.16822,2.43866,2.85071q-.18736,1.79983-.37475,3.59967a2.3763,2.3763,0,0,1-1.25626,2.0788q.28263,1.97406.555,3.94836c.03248.22022-.08789.31714-.28762.29614q-.89-.09182-1.78015-.17913a.28569.28569,0,0,1-.28452-.281q-.26463-1.80753-.53787-3.61487-.817-.07735-1.63416-.15124l-.31567,3.49652a.26732.26732,0,0,1-.31674.26074q-.89072-.07974-1.78186-.155a.267.267,0,0,1-.267-.31152q.5013-5.99259,1.00253-11.98548a.27113.27113,0,0,1,.32514-.26171q2.25855.1907,4.51519.409m-2.95269,6.23358q.92418.0835,1.84805.17163a.65742.65742,0,0,0,.80893-.64508q.13179-1.353.26367-2.70593a.65958.65958,0,0,0-.67761-.78937q-.93435-.08916-1.869-.17358-.187,2.0712-.374,4.14233m3.14526-8.22424q-2.26877-.21945-4.53943-.41125A2.3144,2.3144,0,0,0,149.301,4.12688q-.46755,5.99551-.935,11.991a2.28569,2.28569,0,0,0,2.12051,2.46777q.88614.07489,1.772.15412a2.33137,2.33137,0,0,0,1.58176-.42432,2.35972,2.35972,0,0,0,1.49.71252q.88536.08689,1.77026.17817a2.30318,2.30318,0,0,0,1.89838-.65955,2.23986,2.23986,0,0,0,.60516-1.90143q-.188-1.41732-.38146-2.83417a4.70489,4.70489,0,0,0,1.12445-2.69806q.19748-1.79864.395-3.59753c.30966-2.7713-1.38407-4.77826-4.31879-5.06305Z" fill="#fff"/>
    <path d="M163.75058,18.9478a3.34667,3.34667,0,0,1-3.2114-3.99163q.06488-.58128.12964-1.16272a1.26009,1.26009,0,0,1,1.45908-1.13092q.30106.03461.60211.06982-.3447-.15472-.68991-.309a1.65736,1.65736,0,0,1-1.024-1.74438q.17259-1.54761.34516-3.0951c.24615-2.23529,1.80023-3.41864,4.15463-3.1325q1.05372.12836,2.10693.26263c2.35245.30078,3.57041,1.82935,3.26023,4.05688q-.08117.5886-.1623,1.17731a1.25492,1.25492,0,0,1-1.25271,1.11054,1.63678,1.63678,0,0,1,.8642,1.70758q-.23109,1.67651-.46222,3.353a3.348,3.348,0,0,1-4.09488,3.08081Q164.76315,19.071,163.75058,18.9478Zm1.7511-4.10339q.05072-.40246.10138-.80511-.24542-.113-.49109-.22559a1.35033,1.35033,0,0,1,.03009.50665l-.05856.472Q165.29256,14.81826,165.50168,14.84441Zm.67807-5.30353a1.38152,1.38152,0,0,1,.01086-.18853l.05912-.47193q-.22208-.02829-.44419-.05633-.0324.25872-.0647.51739Q165.96044,9.4411,166.17975,9.54088Z" fill="#7211ff"/>
    <path d="M167.49634,5.706c1.76465.22559,2.58111,1.24768,2.35318,2.92395q-.07947.58887-.159,1.1778a.26259.26259,0,0,1-.33517.24554q-.9364-.12552-1.87332-.2464a.271.271,0,0,1-.26017-.32391q.04807-.37536.09616-.75073a.65177.65177,0,0,0-.65423-.80866q-.51261-.06463-1.02542-.12774a.66787.66787,0,0,0-.83258.62335q-.092.75953-.18406,1.51916,2.15864.96936,4.29764,1.96405a.64619.64619,0,0,1,.3906.72449q-.22641,1.67735-.45279,3.35437a2.35127,2.35127,0,0,1-2.95548,2.22693q-1.01477-.12927-2.03024-.253a2.35865,2.35865,0,0,1-2.31723-2.88434l.13293-1.16229a.26038.26038,0,0,1,.3263-.25257q.92632.10667,1.85238.2182c.20218.02424.28257.12507.25876.32142l-.091.75036a.65415.65415,0,0,0,.64325.80371q.49251.0607.98495.12281a.64642.64642,0,0,0,.821-.62122q.11549-.90189.23108-1.80359-2.11451-.9786-4.24845-1.93274a.646.646,0,0,1-.42224-.71991q.17693-1.547.35389-3.094a2.37554,2.37554,0,0,1,2.99792-2.25684q1.05084.12818,2.10129.2619m.25305-1.98388q-1.056-.13487-2.11258-.26331c-2.92908-.35608-5.01587,1.2384-5.31161,4.011q-.16824,1.54806-.33643,3.096a2.636,2.636,0,0,0,.36731,1.68451,2.2536,2.2536,0,0,0-.70584,1.431q-.06318.58155-.12638,1.163a4.36852,4.36852,0,0,0,4.10584,5.09613q1.00969.123,2.01895.25165a4.37034,4.37034,0,0,0,5.23395-3.9317q.23589-1.676.47171-3.35175a2.63874,2.63874,0,0,0-.23337-1.54016,2.24837,2.24837,0,0,0,.62979-1.27679l.16565-1.17688c.39414-2.76081-1.23965-4.8183-4.167-5.19275Z" fill="#fff"/>
    <path d="M178.5607,21.06554a1.28539,1.28539,0,0,1-1.1-1.22656q-.07164-.76437-.14489-1.52844-.91851-.14658-1.83765-.28839-.30175.7163-.60193,1.43292a1.27815,1.27815,0,0,1-1.41418.81018q-.88357-.1323-1.76767-.26a1.255,1.255,0,0,1-.94339-.61438,1.21443,1.21443,0,0,1-.03809-1.11194q2.34073-5.74073,4.7804-11.45392a1.30359,1.30359,0,0,1,1.48-.798q1.30366.19986,2.60629.40912a1.31723,1.31723,0,0,1,1.16778,1.25909q.57245,6.175,1.04383,12.34631a1.19768,1.19768,0,0,1-.37854,1.01978,1.26986,1.26986,0,0,1-1.10636.29535Q179.43378,21.20891,178.5607,21.06554Z" fill="#7211ff"/>
    <path d="M179.421,7.42345a.29044.29044,0,0,1,.27765.29987q.59006,6.19638,1.07828,12.389c.02112.20374-.08747.29554-.30368.25843q-.87489-.14823-1.75043-.29193a.27976.27976,0,0,1-.24817-.29609q-.10607-1.16656-.21576-2.33349-1.70929-.27668-3.4205-.53668-.4526,1.07848-.9017,2.15795a.28.28,0,0,1-.32679.20582q-.886-.13248-1.77255-.26069c-.19867-.02862-.27423-.14862-.1915-.33642q2.36028-5.74548,4.81974-11.46326a.29057.29057,0,0,1,.35608-.2005q1.30018.1995,2.59933.408m-3.7012,7.51068q1.15333.17716,2.30585.36182-.18874-2.5101-.39322-5.02094-.964,2.32746-1.91263,4.65912m4.01828-9.48535q-1.30618-.20966-2.61328-.41022a2.34791,2.34791,0,0,0-2.617,1.42627q-2.42362,5.71721-4.74878,11.4618a2.18916,2.18916,0,0,0,.10971,1.95288,2.28523,2.28523,0,0,0,1.68256,1.11554q.88161.12735,1.76273.25921a2.29775,2.29775,0,0,0,2.51648-1.45343q.141-.33388.28259-.668l.26373.04138q.03708.382.07376.76343a2.29674,2.29674,0,0,0,1.94794,2.11463q.87062.143,1.74069.29034a2.31185,2.31185,0,0,0,1.96439-.54608,2.20966,2.20966,0,0,0,.698-1.87183q-.4538-6.156-1.00812-12.31634a2.3488,2.3488,0,0,0-2.05539-2.15961Z" fill="#fff"/>
    <path d="M188.72574,22.8864a1.29776,1.29776,0,0,1-1.08392-1.26141q-.057-1.03564-.1168-2.07159-.16323.86461-.3265,1.72918a1.27268,1.27268,0,0,1-1.523,1.0257q-.87951-.16287-1.75965-.32117a1.27246,1.27246,0,0,1-1.06207-1.49737q1.04334-5.92247,2.08661-11.845a1.29132,1.29132,0,0,1,1.56128-1.03033q2.24359.40356,4.48331.83484c2.33483.45032,3.457,2.054,3.00634,4.25714q-.36017,1.77337-.72033,3.54669a3.53006,3.53006,0,0,1-1.40827,2.332q.07742,1.68174.14752,3.3631a1.22976,1.22976,0,0,1-.427,1.02448,1.28,1.28,0,0,1-1.10083.25915Q189.60438,23.05684,188.72574,22.8864Zm.27121-8.2185q.202-1.0601.40408-2.12012-.267-.05127-.53384-.10217-.20032,1.06072-.40064,2.1217Q188.73187,14.61731,188.997,14.6679Z" fill="#7211ff"/>
    <path d="M190.7959,9.43126c1.751.33759,2.50354,1.40961,2.17016,3.06836q-.35513,1.7744-.71029,3.54877a2.37423,2.37423,0,0,1-1.44907,1.95136q.09814,1.992.18607,3.98358c.012.22241-.11719.30725-.315.2677q-.88055-.17523-1.76153-.34632a.28623.28623,0,0,1-.258-.30658q-.09567-1.82474-.19989-3.6499-.809-.15426-1.61853-.30469-.32088,1.72587-.64166,3.4516a.26758.26758,0,0,1-.34067.2298q-.882-.16324-1.76455-.322a.26751.26751,0,0,1-.23746-.33527q1.06-5.91952,2.12-11.839a.27163.27163,0,0,1,.34913-.23q2.23759.40255,4.47128.83264m-3.53147,5.92817q.9155.17028,1.8303.34515a.65882.65882,0,0,0,.86825-.5661q.25791-1.33474.51593-2.66931a.66063.66063,0,0,0-.60321-.8498q-.92523-.17688-1.8511-.349-.38,2.04446-.76017,4.08905M191.174,7.46734q-2.24565-.43232-4.49527-.8371a2.31807,2.31807,0,0,0-2.77386,1.83368q-1.02654,5.92538-2.0531,11.85077a2.28906,2.28906,0,0,0,1.887,2.65661q.87762.158,1.75473.32025a2.34362,2.34362,0,0,0,1.61969-.27362,2.37146,2.37146,0,0,0,1.42206.85016q.87626.16983,1.75177.34442a2.3138,2.3138,0,0,0,1.95822-.47754,2.23433,2.23433,0,0,0,.782-1.836q-.05571-1.42878-.11673-2.858a4.69415,4.69415,0,0,0,1.37528-2.5802q.36516-1.77237.73034-3.54467c.56794-2.73-.93743-4.88843-3.84216-5.44873Z" fill="#fff"/>
    <path d="M196.79572,24.54851a1.32985,1.32985,0,0,1-1.06525-1.62176q.43368-2.02735.8674-4.05469-.85694-3.90537-1.78094-7.80933a1.21419,1.21419,0,0,1,.31909-1.19067,1.39945,1.39945,0,0,1,1.28958-.33319q.93123.19373,1.86178.39221A1.48022,1.48022,0,0,1,199.48,11.12786q.29548,1.33988.58316,2.67993.83432-1.10807,1.676-2.21271a1.47113,1.47113,0,0,1,1.56646-.55737q.92835.21139,1.856.42767a1.40332,1.40332,0,0,1,1.03162.8451,1.22,1.22,0,0,1-.22156,1.22705q-2.47742,3.14611-4.89331,6.32257-.45923,2.02176-.9184,4.04351a1.33073,1.33073,0,0,1-1.64969,1.023Q197.65338,24.73555,196.79572,24.54851Z" fill="#7211ff"/>
    <path d="M204.93457,12.43926c.27756.06445.36594.2699.20163.47235q-2.54165,3.24207-5.018,6.51556-.47656,2.12595-.95309,4.2519a.32651.32651,0,0,1-.4371.27154q-.85923-.19161-1.7193-.37915a.32649.32649,0,0,1-.28174-.43q.46179-2.12915.92358-4.25842-.86957-4.0113-1.80969-8.02137c-.06378-.25213.10272-.40191.38116-.34375q.92877.19318,1.85679.39118a.43137.43137,0,0,1,.3663.37292q.55289,2.48493,1.07913,4.96991,1.52242-2.0333,3.06989-4.05493a.433.433,0,0,1,.48947-.18426q.92592.21084,1.851.42651m.45407-1.94775q-.93008-.2169-1.861-.42884a2.53647,2.53647,0,0,0-2.65891.94892q-.13343.176-.26663.35211-.04669-.21515-.09363-.4303A2.53308,2.53308,0,0,0,198.496,8.95311q-.933-.199-1.86679-.39325a2.47963,2.47963,0,0,0-2.25641.60663,2.18965,2.18965,0,0,0-.57028,2.13214q.90317,3.78177,1.74344,7.56519-.40631,1.92554-.81247,3.8512a2.33654,2.33654,0,0,0,1.84924,2.81054q.85524.1865,1.70975.37708a2.33789,2.33789,0,0,0,2.86185-1.77167q.44137-1.91784.88266-3.83581,2.3647-3.09138,4.78814-6.15448a2.17063,2.17063,0,0,0,.35871-2.14887,2.48574,2.48574,0,0,0-1.79523-1.5003Z" fill="#fff"/>
  </g>
</svg>
